<svg width="87" height="87" viewBox="0 0 87 87" fill="none" xmlns="http://www.w3.org/2000/svg">
<rect x="0.263672" y="0.0162354" width="86.0157" height="86.0157" rx="26.1313" fill="#F1D488" fill-opacity="0.4"/>
<path d="M31.2181 37.555C32.2295 37.555 33.0494 36.172 33.0494 34.466C33.0494 32.76 32.2295 31.3771 31.2181 31.3771C30.2066 31.3771 29.3867 32.76 29.3867 34.466C29.3867 36.172 30.2066 37.555 31.2181 37.555Z" fill="#E8C59E"/>
<path d="M53.9075 37.5547C54.919 37.5547 55.7389 36.1717 55.7389 34.4657C55.7389 32.7597 54.919 31.3768 53.9075 31.3768C52.8961 31.3768 52.0762 32.7597 52.0762 34.4657C52.0762 36.1717 52.8961 37.5547 53.9075 37.5547Z" fill="#E8C59E"/>
<path d="M48.6862 49.8004C51.4046 49.9983 54.0888 50.5261 56.6797 51.3724C58.6412 52.0531 60.3429 53.3262 61.5495 55.0158C62.7562 56.7054 63.4083 58.7281 63.4157 60.8043V67.7368H22.041V60.8436C22.0484 58.7674 22.7005 56.7447 23.9071 55.0551C25.1138 53.3655 26.8155 52.0924 28.777 51.4117C31.3679 50.5654 34.0521 50.0376 36.7705 49.8397" fill="#003F7F"/>
<path d="M38.1222 44.8411L42.7438 46.7039L47.3654 44.8411L48.1907 47.8671L42.7438 51.6399L37.2969 47.8671L38.1222 44.8411Z" fill="#DBB997"/>
<path d="M54.2503 32.5168C54.2503 37.7358 51.7116 43.5836 47.9624 46.6647C46.4681 47.9923 44.5529 48.7495 42.5547 48.8026C40.587 48.7372 38.7031 47.9897 37.2257 46.6883C33.4608 43.6465 30.8906 37.7673 30.8906 32.5404V31.385C32.6849 29.5512 34.8915 28.1728 37.3266 27.3648C39.7616 26.5568 42.3545 26.3425 44.8891 26.7398C48.9213 27.2743 51.3814 27.0385 52.8827 26.5826C53.8008 28.4249 54.2695 30.4585 54.2503 32.5168Z" fill="#E8C59E"/>
<path d="M43.6614 55.0197H41.7907L39.4092 51.64H46.043L43.6614 55.0197Z" fill="#333333"/>
<path d="M41.7932 55.0195H43.6639L44.8429 65.8977L42.7286 67.7369L40.6143 65.8977L41.7932 55.0195Z" fill="#4D4D4D"/>
<path d="M37.2976 47.8672L37.5962 48.0716L42.7445 51.64L39.3176 55.8608L35.8906 49.8872L37.2976 47.8672ZM48.1914 47.8672L47.8927 48.0716L42.7445 51.64L46.1714 55.8608L49.5905 49.8872L48.1914 47.8672Z" fill="#E6E6E6"/>
<path d="M30.647 35.6449H31.488C31.2207 33.3891 31.2207 32.6582 31.9674 31.377C31.9674 31.377 38.6484 32.3045 43.0578 31.6992C46.2226 31.214 49.3248 30.3837 52.3089 29.2234C53.0163 30.6617 53.0949 32.611 52.9613 35.6292L54.321 35.8964C54.8048 32.5852 54.8708 29.2263 54.5175 25.8986C54.1717 23.9808 53.9281 20.436 47.5301 18.0387C47.0558 17.8596 46.5665 17.7228 46.0681 17.63C40.1653 16.6475 28.7449 19.257 29.0278 29.0976C28.7583 31.404 29.3335 33.73 30.647 35.6449Z" fill="#2F3233"/>
</svg>
